<svg width="25" height="24" viewBox="0 0 25 24" fill="none" xmlns="http://www.w3.org/2000/svg">
<g clip-path="url(#clip0)">
<path d="M23.9412 8.74066C23.5333 8.35117 22.8738 8.3529 22.468 8.74446L9.94588 20.8308C8.32128 22.3904 5.68269 22.3904 4.05507 20.8286C2.42866 19.2665 2.42866 16.7335 4.05526 15.1719L16.9481 2.72978C17.9624 1.75612 19.6114 1.75612 20.6286 2.73189C21.6455 3.70814 21.6455 5.291 20.6284 6.26752L9.94783 16.5207C9.94715 16.5214 9.94656 16.5221 9.94588 16.5228C9.53899 16.9113 8.8814 16.9107 8.47534 16.5209C8.06859 16.1304 8.06859 15.4976 8.47534 15.1071L13.6307 10.1569C14.0375 9.76631 14.0374 9.13311 13.6306 8.74263C13.2237 8.35215 12.5642 8.3522 12.1574 8.74277L7.00206 13.6929C5.78177 14.8644 5.78177 16.7636 7.00216 17.9351C8.2225 19.1067 10.2009 19.1067 11.4213 17.9351C11.4227 17.9338 11.4238 17.9323 11.4252 17.931L22.1015 7.68168C23.9323 5.92411 23.9323 3.07489 22.1015 1.31731C20.2704 -0.439227 17.3027 -0.439227 15.473 1.31731L2.58013 13.7595C0.141891 16.1003 0.141891 19.8993 2.58189 22.2429C5.0235 24.5856 8.98092 24.5856 11.4211 22.2431L23.9452 10.1549C24.3509 9.76331 24.3491 9.13015 23.9412 8.74066Z" fill="#838383"/>
</g>
<defs>
<clipPath id="clip0">
<rect width="25" height="24" fill="white"/>
</clipPath>
</defs>
</svg>
