<svg width="25" height="25" viewBox="0 0 25 25" fill="none" xmlns="http://www.w3.org/2000/svg">
<g clip-path="url(#clip0)">
<path d="M24.8727 1.02384C24.7614 0.926233 24.603 0.903587 24.4688 0.965844L0.21621 12.2343C0.085642 12.295 0.00156131 12.4253 -8.19776e-06 12.5692C-0.0015777 12.7132 0.0797377 12.8452 0.209035 12.9087L7.07249 16.277C7.19834 16.3388 7.34842 16.3248 7.46083 16.2408L14.134 11.2532L8.89528 16.6419C8.82054 16.7188 8.78243 16.8241 8.79065 16.9309L9.31225 23.7238C9.32383 23.8744 9.42473 24.0031 9.56815 24.0502C9.60649 24.0628 9.64588 24.0689 9.68482 24.0689C9.79162 24.0689 9.8955 24.0231 9.96778 23.9394L13.6107 19.718L18.114 21.8697C18.2118 21.9164 18.3249 21.9184 18.4243 21.8752C18.5236 21.8319 18.5992 21.7478 18.6317 21.6445L24.9828 1.41674C25.0272 1.27549 24.9839 1.12145 24.8727 1.02384Z" fill="#838383"/>
</g>
<defs>
<clipPath id="clip0">
<rect width="25" height="25" fill="white"/>
</clipPath>
</defs>
</svg>
